<mxfile host="app.diagrams.net" modified="2023-05-10T12:41:20.436Z" agent="Mozilla/5.0 (Windows NT 10.0; Win64; x64; rv:109.0) Gecko/20100101 Firefox/114.0" version="21.2.9" etag="AESC7tO9oQO0aiwTfRtX" type="github">
  <diagram name="Page-1" id="3c93BApWp58adwElare-">
    <mxGraphModel>
      <root>
        <mxCell id="0" />
        <mxCell id="1" parent="0" />
      </root>
    </mxGraphModel>
  </diagram>
</mxfile>
